w50b1r0.ufo
<glyph name="_2" format="2">
  <advance width="50"/>
  <unicode hex="0102"/>
  <unicode hex="0062"/>
  <outline>
    <component base="cap" xOffset="0" yOffset="0" />
    <component base="cap" xOffset="0" yOffset="20" />
    <contour>
      <point x="0" y="0" type="line"/>
      <point x="0" y="20" type="line"/>
      <point x="1" y="20" type="line"/>
      <point x="1" y="0" type="line"/>
    </contour>
  </outline>
</glyph>
<glyph name="_12" format="2">
  <advance width="50"/>
  <unicode hex="010C"/>
  <unicode hex="0067"/>
  <outline>
    <component base="cap" xOffset="0" yOffset="0" />
    <component base="cap" xOffset="0" yOffset="120" />
    <contour>
      <point x="0" y="0" type="line"/>
      <point x="0" y="120" type="line"/>
      <point x="1" y="120" type="line"/>
      <point x="1" y="0" type="line"/>
    </contour>
  </outline>
</glyph>
<glyph name="_14" format="2">
  <advance width="50"/>
  <unicode hex="010E"/>
  <unicode hex="2582"/><unicode hex="0068"/>
  <outline>
    <component base="cap" xOffset="0" yOffset="0" />
    <component base="cap" xOffset="0" yOffset="140" />
    <contour>
      <point x="0" y="0" type="line"/>
      <point x="0" y="140" type="line"/>
      <point x="1" y="140" type="line"/>
      <point x="1" y="0" type="line"/>
    </contour>
  </outline>
</glyph>
<glyph name="_16" format="2">
  <advance width="50"/>
  <unicode hex="0110"/>
  <unicode hex="0069"/>
  <outline>
    <component base="cap" xOffset="0" yOffset="0" />
    <component base="cap" xOffset="0" yOffset="160" />
    <contour>
      <point x="0" y="0" type="line"/>
      <point x="0" y="160" type="line"/>
      <point x="1" y="160" type="line"/>
      <point x="1" y="0" type="line"/>
    </contour>
  </outline>
</glyph>
<glyph name="_19" format="2">
  <advance width="50"/>
  <unicode hex="0113"/>
  
  <outline>
    <component base="cap" xOffset="0" yOffset="0" />
    <component base="cap" xOffset="0" yOffset="190" />
    <contour>
      <point x="0" y="0" type="line"/>
      <point x="0" y="190" type="line"/>
      <point x="1" y="190" type="line"/>
      <point x="1" y="0" type="line"/>
    </contour>
  </outline>
</glyph>
<glyph name="_21" format="2">
  <advance width="50"/>
  <unicode hex="0115"/>
  
  <outline>
    <component base="cap" xOffset="0" yOffset="0" />
    <component base="cap" xOffset="0" yOffset="210" />
    <contour>
      <point x="0" y="0" type="line"/>
      <point x="0" y="210" type="line"/>
      <point x="1" y="210" type="line"/>
      <point x="1" y="0" type="line"/>
    </contour>
  </outline>
</glyph>
<glyph name="_24" format="2">
  <advance width="50"/>
  <unicode hex="0118"/>
  <unicode hex="006D"/>
  <outline>
    <component base="cap" xOffset="0" yOffset="0" />
    <component base="cap" xOffset="0" yOffset="240" />
    <contour>
      <point x="0" y="0" type="line"/>
      <point x="0" y="240" type="line"/>
      <point x="1" y="240" type="line"/>
      <point x="1" y="0" type="line"/>
    </contour>
  </outline>
</glyph>
<glyph name="_55" format="2">
  <advance width="50"/>
  <unicode hex="0137"/>
  
  <outline>
    <component base="cap" xOffset="0" yOffset="0" />
    <component base="cap" xOffset="0" yOffset="550" />
    <contour>
      <point x="0" y="0" type="line"/>
      <point x="0" y="550" type="line"/>
      <point x="1" y="550" type="line"/>
      <point x="1" y="0" type="line"/>
    </contour>
  </outline>
</glyph>
<glyph name="_56" format="2">
  <advance width="50"/>
  <unicode hex="0138"/>
  <unicode hex="2585"/><unicode hex="0043"/>
  <outline>
    <component base="cap" xOffset="0" yOffset="0" />
    <component base="cap" xOffset="0" yOffset="560" />
    <contour>
      <point x="0" y="0" type="line"/>
      <point x="0" y="560" type="line"/>
      <point x="1" y="560" type="line"/>
      <point x="1" y="0" type="line"/>
    </contour>
  </outline>
</glyph>
<glyph name="_64" format="2">
  <advance width="50"/>
  <unicode hex="0140"/>
  <unicode hex="0047"/>
  <outline>
    <component base="cap" xOffset="0" yOffset="0" />
    <component base="cap" xOffset="0" yOffset="640" />
    <contour>
      <point x="0" y="0" type="line"/>
      <point x="0" y="640" type="line"/>
      <point x="1" y="640" type="line"/>
      <point x="1" y="0" type="line"/>
    </contour>
  </outline>
</glyph>
<glyph name="_87" format="2">
  <advance width="50"/>
  <unicode hex="0157"/>
  
  <outline>
    <component base="cap" xOffset="0" yOffset="0" />
    <component base="cap" xOffset="0" yOffset="870" />
    <contour>
      <point x="0" y="0" type="line"/>
      <point x="0" y="870" type="line"/>
      <point x="1" y="870" type="line"/>
      <point x="1" y="0" type="line"/>
    </contour>
  </outline>
</glyph>
<glyph name="_98" format="2">
  <advance width="50"/>
  <unicode hex="0162"/>
  <unicode hex="0058"/>
  <outline>
    <component base="cap" xOffset="0" yOffset="0" />
    <component base="cap" xOffset="0" yOffset="980" />
    <contour>
      <point x="0" y="0" type="line"/>
      <point x="0" y="980" type="line"/>
      <point x="1" y="980" type="line"/>
      <point x="1" y="0" type="line"/>
    </contour>
  </outline>
</glyph>
<glyph name="_101" format="2">
  <advance width="50"/>
  <unicode hex="0165"/>
  
  <outline>
    <component base="cap" xOffset="0" yOffset="0" />
    <component base="cap" xOffset="0" yOffset="1010" />
    <contour>
      <point x="0" y="0" type="line"/>
      <point x="0" y="1010" type="line"/>
      <point x="1" y="1010" type="line"/>
      <point x="1" y="0" type="line"/>
    </contour>
  </outline>
</glyph>
<glyph name="_23.center" format="2">
  <advance width="50"/>
  <unicode hex="0417"/>
  
  <outline>
    <component base="cap" xOffset="0" yOffset="385" />
    <component base="cap" xOffset="0" yOffset="615" />
    <contour>
      <point x="0" y="385" type="line"/>
      <point x="0" y="615" type="line"/>
      <point x="1" y="615" type="line"/>
      <point x="1" y="385" type="line"/>
    </contour>
  </outline>
</glyph>
<glyph name="_28.center" format="2">
  <advance width="50"/>
  <unicode hex="041C"/>
  
  <outline>
    <component base="cap" xOffset="0" yOffset="360" />
    <component base="cap" xOffset="0" yOffset="640" />
    <contour>
      <point x="0" y="360" type="line"/>
      <point x="0" y="640" type="line"/>
      <point x="1" y="640" type="line"/>
      <point x="1" y="360" type="line"/>
    </contour>
  </outline>
</glyph>
<glyph name="_29.center" format="2">
  <advance width="50"/>
  <unicode hex="041D"/>
  
  <outline>
    <component base="cap" xOffset="0" yOffset="355" />
    <component base="cap" xOffset="0" yOffset="645" />
    <contour>
      <point x="0" y="355" type="line"/>
      <point x="0" y="645" type="line"/>
      <point x="1" y="645" type="line"/>
      <point x="1" y="355" type="line"/>
    </contour>
  </outline>
</glyph>
<glyph name="_36.center" format="2">
  <advance width="50"/>
  <unicode hex="0424"/>
  
  <outline>
    <component base="cap" xOffset="0" yOffset="320" />
    <component base="cap" xOffset="0" yOffset="680" />
    <contour>
      <point x="0" y="320" type="line"/>
      <point x="0" y="680" type="line"/>
      <point x="1" y="680" type="line"/>
      <point x="1" y="320" type="line"/>
    </contour>
  </outline>
</glyph>
<glyph name="_49.center" format="2">
  <advance width="50"/>
  <unicode hex="0431"/>
  
  <outline>
    <component base="cap" xOffset="0" yOffset="255" />
    <component base="cap" xOffset="0" yOffset="745" />
    <contour>
      <point x="0" y="255" type="line"/>
      <point x="0" y="745" type="line"/>
      <point x="1" y="745" type="line"/>
      <point x="1" y="255" type="line"/>
    </contour>
  </outline>
</glyph>
<glyph name="_57.center" format="2">
  <advance width="50"/>
  <unicode hex="0439"/>
  
  <outline>
    <component base="cap" xOffset="0" yOffset="215" />
    <component base="cap" xOffset="0" yOffset="785" />
    <contour>
      <point x="0" y="215" type="line"/>
      <point x="0" y="785" type="line"/>
      <point x="1" y="785" type="line"/>
      <point x="1" y="215" type="line"/>
    </contour>
  </outline>
</glyph>
<glyph name="_83.center" format="2">
  <advance width="50"/>
  <unicode hex="0453"/>
  
  <outline>
    <component base="cap" xOffset="0" yOffset="85" />
    <component base="cap" xOffset="0" yOffset="915" />
    <contour>
      <point x="0" y="85" type="line"/>
      <point x="0" y="915" type="line"/>
      <point x="1" y="915" type="line"/>
      <point x="1" y="85" type="line"/>
    </contour>
  </outline>
</glyph>
<glyph name="_87.center" format="2">
  <advance width="50"/>
  <unicode hex="0457"/>
  
  <outline>
    <component base="cap" xOffset="0" yOffset="65" />
    <component base="cap" xOffset="0" yOffset="935" />
    <contour>
      <point x="0" y="65" type="line"/>
      <point x="0" y="935" type="line"/>
      <point x="1" y="935" type="line"/>
      <point x="1" y="65" type="line"/>
    </contour>
  </outline>
</glyph>
<glyph name="_98.center" format="2">
  <advance width="50"/>
  <unicode hex="0462"/>
  
  <outline>
    <component base="cap" xOffset="0" yOffset="10" />
    <component base="cap" xOffset="0" yOffset="990" />
    <contour>
      <point x="0" y="10" type="line"/>
      <point x="0" y="990" type="line"/>
      <point x="1" y="990" type="line"/>
      <point x="1" y="10" type="line"/>
    </contour>
  </outline>
</glyph>
